<svg xmlns="http://www.w3.org/2000/svg" viewBox="0 0 12.25 14"><defs><style>.cls-1{fill:#201f2c;fill-rule:evenodd;}</style></defs><g id="Layer_2" data-name="Layer 2"><g id="Layer_1-2" data-name="Layer 1"><path class="cls-1" d="M10.94,14a1.3,1.3,0,0,0,1.31-1.31V3.06a1.3,1.3,0,0,0-1.31-1.31H9.62V.33A.32.32,0,0,0,9.53.1.3.3,0,0,0,9.3,0H9.08a.29.29,0,0,0-.23.1.29.29,0,0,0-.1.23V1.75H3.5V.33A.29.29,0,0,0,3.4.1.29.29,0,0,0,3.17,0H3a.29.29,0,0,0-.23.1.33.33,0,0,0-.1.23V1.75H1.31A1.3,1.3,0,0,0,0,3.06v9.63A1.3,1.3,0,0,0,1.31,14Zm.43-9.62H.87V3.06A.44.44,0,0,1,1,2.75a.41.41,0,0,1,.31-.12h9.63a.41.41,0,0,1,.31.12.43.43,0,0,1,.12.31Zm-.43,8.75H1.31A.44.44,0,0,1,1,13a.41.41,0,0,1-.12-.31V5.25h10.5v7.44a.42.42,0,0,1-.13.31.41.41,0,0,1-.31.12ZM4.05,8.75a.29.29,0,0,0,.23-.1.33.33,0,0,0,.1-.23V7.33a.33.33,0,0,0-.1-.23A.29.29,0,0,0,4.05,7H3a.29.29,0,0,0-.23.1.33.33,0,0,0-.1.23V8.42a.33.33,0,0,0,.1.23.29.29,0,0,0,.23.1Zm2.62,0A.34.34,0,0,0,7,8.42V7.33A.34.34,0,0,0,6.67,7H5.58a.34.34,0,0,0-.33.33V8.42a.34.34,0,0,0,.33.33Zm2.63,0a.3.3,0,0,0,.23-.1.33.33,0,0,0,.1-.23V7.33a.33.33,0,0,0-.1-.23A.3.3,0,0,0,9.3,7H8.2A.3.3,0,0,0,8,7.1a.32.32,0,0,0-.09.23V8.42A.32.32,0,0,0,8,8.65a.3.3,0,0,0,.23.1ZM6.67,11.38a.33.33,0,0,0,.23-.1.3.3,0,0,0,.1-.23V10a.29.29,0,0,0-.1-.23.33.33,0,0,0-.23-.1H5.58a.33.33,0,0,0-.23.1.29.29,0,0,0-.1.23v1.1a.3.3,0,0,0,.1.23.33.33,0,0,0,.23.1Zm-2.62,0a.33.33,0,0,0,.23-.1.34.34,0,0,0,.1-.23V10a.34.34,0,0,0-.33-.33H3a.34.34,0,0,0-.33.33v1.1a.34.34,0,0,0,.1.23.33.33,0,0,0,.23.1Zm5.25,0a.34.34,0,0,0,.33-.33V10a.33.33,0,0,0-.1-.23.34.34,0,0,0-.23-.1H8.2a.34.34,0,0,0-.23.1.32.32,0,0,0-.09.23v1.1a.33.33,0,0,0,.09.23.34.34,0,0,0,.23.1Z"/></g></g></svg>