<svg xmlns="http://www.w3.org/2000/svg" viewBox="0 0 333.95 71.54"><defs><style>.cls-1{fill:#fff;}.cls-1,.cls-2{fill-rule:evenodd;}.cls-2{fill:#83e05e;}</style></defs><g id="Layer_2" data-name="Layer 2"><g id="Layer_1-2" data-name="Layer 1"><polygon class="cls-1" points="321.47 38.26 330.25 3.8 333.95 3.8 325.17 38.26 321.47 38.26"/><path class="cls-1" d="M313.23,35.13A19.09,19.09,0,0,1,308.55,38a11.71,11.71,0,0,1-4.29.82c-2.4,0-4.07-.66-5-2a6,6,0,0,1-.63-5.12,10,10,0,0,1,4.11-5.76,11.48,11.48,0,0,1,3-1.39,26.25,26.25,0,0,1,3.45-.63,35.05,35.05,0,0,0,7-1.46c.16-.57.27-.94.3-1.09.44-1.72.4-2.93-.12-3.64-.7-1-2-1.43-3.85-1.43a7.15,7.15,0,0,0-4.13,1.06A9.17,9.17,0,0,0,305.57,21l-3.47-.58a15.06,15.06,0,0,1,2.72-4.3,10.4,10.4,0,0,1,3.92-2.52,14.86,14.86,0,0,1,5.18-.88,10.12,10.12,0,0,1,4.36.76,4.21,4.21,0,0,1,2.09,1.89,6,6,0,0,1,.42,2.89,31.78,31.78,0,0,1-.81,3.89l-1.43,5.61a73.79,73.79,0,0,0-1.67,7.45,9.48,9.48,0,0,0,.13,3h-3.86a9.56,9.56,0,0,1,.08-3.13Zm2.1-9.39a29,29,0,0,1-6.45,1.59,15.33,15.33,0,0,0-3.45.84,5,5,0,0,0-1.81,1.37,5.23,5.23,0,0,0-1,2,3.17,3.17,0,0,0,.41,2.8,3.51,3.51,0,0,0,3,1.12,8.33,8.33,0,0,0,4.07-1.06,9.08,9.08,0,0,0,3.19-2.91,13.74,13.74,0,0,0,1.66-4.21Z"/><path class="cls-1" d="M293.76,29.11l3.47.58a15.56,15.56,0,0,1-4.74,6.68,10.52,10.52,0,0,1-6.63,2.41q-4.47,0-6.33-3.34t-.27-9.58a24.18,24.18,0,0,1,3-7.06,13,13,0,0,1,4.71-4.53,11.52,11.52,0,0,1,5.58-1.52,6.5,6.5,0,0,1,5.27,2.05q1.74,2.07,1.41,5.84l-3.73.63a5.65,5.65,0,0,0-.86-3.79,3.36,3.36,0,0,0-2.83-1.26,7.2,7.2,0,0,0-5.12,2.28q-2.32,2.3-3.59,7.24t-.18,7.3a3.9,3.9,0,0,0,3.81,2.28,6.17,6.17,0,0,0,4-1.52A10.86,10.86,0,0,0,293.76,29.11Z"/><polygon class="cls-1" points="267.86 38.26 274.23 13.28 277.92 13.28 271.56 38.26 267.86 38.26"/><polygon class="cls-1" points="275.42 8.61 276.64 3.8 280.34 3.8 279.11 8.61 275.42 8.61"/><path class="cls-1" d="M243.29,40.32l3.43.58a3.33,3.33,0,0,0,.54,2.78,4.52,4.52,0,0,0,3.46,1.17A7.31,7.31,0,0,0,255,43.68a8.39,8.39,0,0,0,2.73-3.28A35.56,35.56,0,0,0,259.36,35c-2.18,2.18-4.46,3.28-6.87,3.28-3,0-5-1.24-6-3.72a14,14,0,0,1-.2-8.89,22.86,22.86,0,0,1,2.8-6.59,14.59,14.59,0,0,1,4.46-4.66A9.92,9.92,0,0,1,259,12.75a5.53,5.53,0,0,1,5.44,3.61l.78-3.08h3.4l-5.49,21.57A27.91,27.91,0,0,1,260,43.11,12,12,0,0,1,255.73,47a12.14,12.14,0,0,1-5.88,1.41c-2.6,0-4.52-.66-5.78-2s-1.52-3.35-.78-6Zm6.85-15q-1.26,4.9-.12,7.15a3.84,3.84,0,0,0,3.69,2.25,6.92,6.92,0,0,0,4.85-2.23,14.79,14.79,0,0,0,3.51-7q1.17-4.57,0-6.9a3.89,3.89,0,0,0-3.69-2.32,6.83,6.83,0,0,0-4.77,2.29A14.29,14.29,0,0,0,250.14,25.34Z"/><path class="cls-1" d="M222.94,25.77q1.76-6.91,6-10.25a12,12,0,0,1,7.56-2.77c3,0,5.16,1.12,6.49,3.37s1.49,5.34.48,9.3A22.87,22.87,0,0,1,240.25,33a14.26,14.26,0,0,1-4.76,4.28,11.67,11.67,0,0,1-5.65,1.52c-3.05,0-5.23-1.11-6.55-3.35s-1.43-5.46-.35-9.66Zm3.77,0q-1.22,4.78,0,7.16a4.17,4.17,0,0,0,4,2.38,7.36,7.36,0,0,0,5.2-2.39,15.41,15.41,0,0,0,3.68-7.29c.79-3.08.76-5.41-.06-7a4.15,4.15,0,0,0-4-2.39,7.41,7.41,0,0,0-5.22,2.37A14.91,14.91,0,0,0,226.71,25.78Z"/><polygon class="cls-1" points="198.07 38.26 206.85 3.8 210.84 3.8 203.09 34.21 217.88 34.21 216.85 38.26 198.07 38.26"/><polygon class="cls-1" points="173.29 27.91 174.37 23.68 185.79 23.68 184.71 27.91 173.29 27.91"/><path class="cls-2" d="M138.89,25.77q1.76-6.91,6-10.25a12,12,0,0,1,7.56-2.77c3,0,5.16,1.12,6.49,3.37s1.49,5.34.48,9.3A22.87,22.87,0,0,1,156.2,33a14.16,14.16,0,0,1-4.76,4.28,11.67,11.67,0,0,1-5.65,1.52c-3,0-5.23-1.11-6.55-3.35s-1.43-5.46-.35-9.66Zm3.77,0q-1.22,4.78,0,7.16a4.17,4.17,0,0,0,4,2.38,7.35,7.35,0,0,0,5.2-2.39,15.41,15.41,0,0,0,3.68-7.29q1.19-4.62-.06-7a4.15,4.15,0,0,0-4-2.39,7.41,7.41,0,0,0-5.22,2.37A15,15,0,0,0,142.66,25.78Z"/><polygon class="cls-2" points="88.62 38.26 97.4 3.8 119.11 3.8 118.08 7.84 100.36 7.84 97.66 18.43 114.25 18.43 113.22 22.47 96.63 22.47 93.64 34.21 112.08 34.21 111.05 38.26 88.62 38.26"/><path class="cls-1" d="M313.91,67.65a5.42,5.42,0,0,0,4.24-2.13l-.77-.74a4.1,4.1,0,0,1-3.14,1.58c-2.07,0-3.15-1.66-2.5-4.21s2.58-4.21,4.64-4.21a2.29,2.29,0,0,1,2.34,1.6l1.14-.74a3,3,0,0,0-3.15-2.14c-2.82,0-5.44,2.26-6.26,5.49S311.09,67.65,313.91,67.65Z"/><polygon class="cls-1" points="305.2 67.55 306.47 67.55 309.23 56.75 307.95 56.75 305.2 67.55"/><path class="cls-1" d="M309.2,54.38a1.37,1.37,0,0,0,1.21-1.07.73.73,0,0,0-.68-1,1.35,1.35,0,0,0-1.19,1C308.39,53.91,308.68,54.38,309.2,54.38Z"/><path class="cls-1" d="M302.87,65.85a2.46,2.46,0,0,1-1.54.55c-1.06,0-1.45-.7-1.13-2L301.85,58h2.87l.31-1.23h-2.87l.6-2.37h-1.27l-.6,2.37H299.2L298.89,58h1.68l-1.66,6.53c-.51,2,.18,3.14,2,3.14a3.47,3.47,0,0,0,2.18-.76Z"/><path class="cls-1" d="M291.65,67.65c2.46,0,4.2-1.21,4.68-3.08,1.06-4.14-5.62-1.95-4.88-4.87.27-1,1.21-1.78,2.92-1.78a3.49,3.49,0,0,1,2.54.92l.86-1.17a4.66,4.66,0,0,0-3.08-1,4.36,4.36,0,0,0-4.52,3.08c-1.09,4.28,5.59,2.06,4.88,4.87-.28,1.07-1.19,1.77-3,1.77A4.08,4.08,0,0,1,289,65.17l-.86,1.15A4.51,4.51,0,0,0,291.65,67.65Z"/><path class="cls-1" d="M284.64,56.66a7,7,0,0,0-4.21,1.46l.3,1.09a5.69,5.69,0,0,1,3.46-1.27c1.76,0,2.42,1,1.95,2.85l-.17.66h-3c-2.71,0-4,1.4-4.42,3.06-.48,1.87.5,3.14,2.64,3.14a4.55,4.55,0,0,0,3.7-1.78l-.43,1.68h1.22l1.71-6.7c.71-2.79-.32-4.19-2.76-4.19Zm-2.95,9.84c-1.51,0-2.19-.78-1.87-2s1.09-1.93,2.91-1.93h3l-.45,1.77A4.14,4.14,0,0,1,281.69,66.5Z"/><polygon class="cls-1" points="273.75 67.55 275.02 67.55 278.9 52.31 277.63 52.31 273.75 67.55"/><path class="cls-1" d="M269.22,56.66a5.37,5.37,0,0,0-4.2,2.22l.54-2.13h-1.22l-3.77,14.79h1.27l1.54-6a2.94,2.94,0,0,0,3,2.13c2.69,0,5.26-2.21,6.1-5.5s-.61-5.49-3.3-5.49Zm-2.56,9.7c-2,0-3.08-1.68-2.44-4.21s2.58-4.21,4.59-4.21,3.08,1.7,2.44,4.21S268.65,66.36,266.66,66.36Z"/><path class="cls-1" d="M252.33,56.66a5.16,5.16,0,0,0-4.12,2.08l.51-2H247.5l-2.75,10.8H246l1.45-5.67c.62-2.46,2.26-3.9,4.29-3.9,1.79,0,2.54,1.17,2,3.45l-1.56,6.12h1.28L255,61.29C255.82,58.18,254.62,56.66,252.33,56.66Z"/><path class="cls-1" d="M229.32,56.66a5.09,5.09,0,0,0-4,2l1.61-6.33h-1.28l-3.88,15.24H223l1.45-5.67c.63-2.46,2.27-3.9,4.29-3.9,1.8,0,2.54,1.17,2,3.45l-1.56,6.12h1.27l1.6-6.26C232.81,58.18,231.62,56.66,229.32,56.66Z"/><path class="cls-1" d="M219.41,65.85a2.46,2.46,0,0,1-1.54.55c-1.05,0-1.45-.7-1.13-2L218.39,58h2.87l.31-1.23H218.7l.6-2.37H218l-.6,2.37h-1.69L215.43,58h1.68l-1.66,6.53c-.51,2,.19,3.14,2,3.14a3.47,3.47,0,0,0,2.18-.76Z"/><path class="cls-2" d="M203.55,67.65a5.42,5.42,0,0,0,4.24-2.13l-.77-.74a4.1,4.1,0,0,1-3.14,1.58c-2.06,0-3.15-1.66-2.5-4.21S204,57.94,206,57.94a2.29,2.29,0,0,1,2.34,1.6l1.14-.74a3,3,0,0,0-3.15-2.14c-2.82,0-5.44,2.26-6.26,5.49S200.73,67.65,203.55,67.65Z"/><polygon class="cls-2" points="194.84 67.55 196.11 67.55 198.87 56.75 197.59 56.75 194.84 67.55"/><path class="cls-2" d="M198.84,54.38a1.36,1.36,0,0,0,1.21-1.07.73.73,0,0,0-.68-1,1.35,1.35,0,0,0-1.19,1C198,53.91,198.32,54.38,198.84,54.38Z"/><path class="cls-2" d="M192.51,65.85a2.46,2.46,0,0,1-1.54.55c-1.05,0-1.45-.7-1.13-2L191.49,58h2.87l.31-1.23H191.8l.6-2.37h-1.27l-.6,2.37h-1.69L188.53,58h1.69l-1.67,6.53c-.51,2,.19,3.14,2,3.14a3.51,3.51,0,0,0,2.19-.76Z"/><path class="cls-2" d="M181.29,67.65c2.46,0,4.2-1.21,4.68-3.08,1.06-4.14-5.62-1.95-4.87-4.87.26-1,1.2-1.78,2.91-1.78a3.49,3.49,0,0,1,2.54.92l.86-1.17a4.66,4.66,0,0,0-3.08-1,4.36,4.36,0,0,0-4.52,3.08c-1.09,4.28,5.59,2.06,4.88,4.87-.28,1.07-1.19,1.77-3,1.77a4.08,4.08,0,0,1-3.05-1.21l-.86,1.15A4.51,4.51,0,0,0,181.29,67.65Z"/><path class="cls-2" d="M174.29,56.66a7,7,0,0,0-4.21,1.46l.29,1.09a5.71,5.71,0,0,1,3.46-1.27c1.76,0,2.42,1,1.95,2.85l-.17.66h-3c-2.71,0-4,1.4-4.42,3.06-.48,1.87.5,3.14,2.64,3.14a4.55,4.55,0,0,0,3.7-1.78l-.43,1.68h1.22l1.71-6.7c.71-2.79-.32-4.19-2.75-4.19Zm-3,9.84c-1.51,0-2.19-.78-1.87-2s1.09-1.93,2.92-1.93h3l-.45,1.77A4.14,4.14,0,0,1,171.33,66.5Z"/><path class="cls-2" d="M165.88,65.85a2.46,2.46,0,0,1-1.54.55c-1.05,0-1.45-.7-1.13-2L164.86,58h2.87l.31-1.23h-2.87l.6-2.37H164.5l-.6,2.37h-1.69L161.9,58h1.69l-1.67,6.53c-.51,2,.19,3.14,2,3.14a3.51,3.51,0,0,0,2.19-.76Z"/><path class="cls-2" d="M156.37,56.66a5.16,5.16,0,0,0-4.12,2.08l.51-2h-1.22l-2.75,10.8h1.27l1.45-5.67c.63-2.46,2.27-3.9,4.29-3.9,1.8,0,2.54,1.17,2,3.45l-1.56,6.12h1.27l1.6-6.26C159.86,58.18,158.67,56.66,156.37,56.66Z"/><path class="cls-2" d="M144.28,56.66a7,7,0,0,0-4.21,1.46l.3,1.09a5.69,5.69,0,0,1,3.46-1.27c1.76,0,2.42,1,1.95,2.85l-.17.66h-3c-2.71,0-4,1.4-4.43,3.06-.47,1.87.51,3.14,2.65,3.14a4.55,4.55,0,0,0,3.7-1.78l-.43,1.68h1.22l1.71-6.7c.71-2.79-.32-4.19-2.76-4.19Zm-2.95,9.84c-1.51,0-2.19-.78-1.87-2s1.08-1.93,2.91-1.93h3l-.45,1.77A4.14,4.14,0,0,1,141.33,66.5Z"/><path class="cls-2" d="M139,53.44a1.55,1.55,0,0,1,1.26.53l.71-1.09a2.15,2.15,0,0,0-1.71-.67,3.8,3.8,0,0,0-3.67,3.2l-.34,1.34h-1.69L133.28,58H135l-2.44,9.57h1.28L136.24,58h2.87l.31-1.23h-2.9l.32-1.28C137.18,54.14,137.93,53.44,139,53.44Z"/><path class="cls-2" d="M126.39,62.15c.82-3.25-.52-5.49-3.18-5.49s-5.19,2.28-6,5.49.6,5.5,3.54,5.5a5.74,5.74,0,0,0,4.09-1.76l-.47-1a4.6,4.6,0,0,1-3.25,1.42c-2.06,0-3.19-1.5-2.76-3.76h7.89c0-.16.11-.33.14-.45Zm-3.5-4.23c1.85,0,2.82,1.48,2.44,3.59h-6.69A4.83,4.83,0,0,1,122.89,57.92Z"/><path class="cls-2" d="M113.25,58.86l.54-2.11h-1.22l-2.75,10.8h1.27l1.41-5.5c.65-2.55,2.21-4,4.19-4l.3,0,.36-1.42A4.71,4.71,0,0,0,113.25,58.86Z"/><path class="cls-2" d="M102.41,67.65c2.76,0,5.37-2.3,6.19-5.5s-.63-5.49-3.39-5.49S99.82,58.94,99,62.15s.65,5.5,3.41,5.5Zm.33-1.29c-2,0-3.09-1.68-2.45-4.21s2.58-4.21,4.59-4.21,3.07,1.68,2.43,4.21S104.75,66.36,102.74,66.36Z"/><polygon class="cls-2" points="97.33 53.17 89.21 63.83 86.48 53.17 85.39 53.17 81.72 67.55 82.99 67.55 85.91 56.11 88.39 65.72 89.02 65.72 96.42 56.05 93.48 67.55 94.76 67.55 98.42 53.17 97.33 53.17"/><polygon class="cls-2" points="35.1 0 67.55 0 65.18 9.5 32.73 9.5 35.1 0"/><polygon class="cls-2" points="27.81 29.17 60.26 29.17 57.88 38.67 25.44 38.67 27.81 29.17"/><polygon class="cls-1" points="0 67.84 7.29 38.67 7.26 38.67 7.29 38.65 16.95 0 27.7 0 20.41 29.17 20.45 29.17 18.07 38.67 18.03 38.67 13.12 58.34 52.94 58.34 50.57 67.84 0 67.84"/><polygon class="cls-1" points="171.63 23.36 188.15 23.36 186.94 28.2 170.42 28.2 171.63 23.36"/><polygon class="cls-2" points="116.12 38.26 124.84 3.87 128.53 3.87 123.57 23.46 134.88 13.33 139.65 13.33 128.99 22.59 134.17 38.26 129.62 38.26 125.61 25.52 122.33 28.37 119.82 38.26 116.12 38.26"/><path class="cls-1" d="M240.23,56.84a7.37,7.37,0,0,0-4.32,1.44l.31,1.08a5.94,5.94,0,0,1,3.54-1.26c1.8,0,2.48,1,2,2.81l-.17.65h-3.07c-2.77,0-4.09,1.38-4.53,3-.49,1.84.52,3.1,2.71,3.1a4.74,4.74,0,0,0,3.79-1.76L240,67.58h1.25L243,61c.73-2.75-.32-4.13-2.81-4.13Zm-3,9.7c-1.54,0-2.24-.77-1.91-2s1.11-1.9,3-1.9h3l-.46,1.74A4.29,4.29,0,0,1,237.19,66.54Z"/></g></g></svg>