<?xml version="1.0" encoding="UTF-8"?>
<!DOCTYPE svg PUBLIC "-//W3C//DTD SVG 1.1//EN" "http://www.w3.org/Graphics/SVG/1.1/DTD/svg11.dtd">
<!-- Creator: CorelDRAW 2020 (64-Bit) -->
<svg xmlns="http://www.w3.org/2000/svg" xml:space="preserve" width="8.5in" height="1.82087in" version="1.1" style="shape-rendering:geometricPrecision; text-rendering:geometricPrecision; image-rendering:optimizeQuality; fill-rule:evenodd; clip-rule:evenodd"
viewBox="0 0 8500 1820.87"
 xmlns:xlink="http://www.w3.org/1999/xlink"
 xmlns:xodm="http://www.corel.com/coreldraw/odm/2003">
 <defs>
  <style type="text/css">
   <![CDATA[
    .str0 {stroke:#83E05E;stroke-width:13.89;stroke-miterlimit:2.61313}
    .str1 {stroke:#E6E6E6;stroke-width:13.89;stroke-miterlimit:2.61313}
    .fil0 {fill:#83E05E;fill-rule:nonzero}
    .fil1 {fill:#E6E6E6;fill-rule:nonzero}
   ]]>
  </style>
 </defs>
 <g id="Layer_x0020_1">
  <metadata id="CorelCorpID_0Corel-Layer"/>
  <path class="fil0" d="M3535.07 655.89c29.91,-117.38 80.58,-204.35 152.19,-260.89 59.54,-46.96 123.79,-70.43 192.39,-70.43 76.09,0 131.17,28.58 165.07,85.74 33.78,56.96 37.88,135.95 12.24,236.59 -20.81,81.65 -47.83,145.75 -81.13,192.5 -33.3,46.74 -73.74,83.08 -121.33,109.01 -47.41,25.92 -95.41,38.78 -143.7,38.78 -77.69,0 -133.18,-28.37 -166.6,-85.32 -33.42,-56.96 -36.39,-139.02 -9.13,-245.98zm96.17 0.2c-20.71,81.25 -20.7,142.08 0.06,182.3 20.88,40.42 54.76,60.63 101.98,60.63 46.68,0 90.68,-20.21 132.21,-60.84 41.36,-40.62 72.63,-102.48 93.8,-185.56 19.98,-78.39 19.43,-137.8 -1.5,-178.01 -20.89,-40.42 -54.59,-60.63 -100.91,-60.63 -47.22,0 -91.34,20.01 -132.77,60.22 -41.26,40.21 -72.21,100.83 -92.86,181.88z"/>
  <path class="fil0" d="M3376.54 741.02l88.2 14.7c-28.62,72.47 -68.7,129.01 -120.67,170.04 -51.97,41.04 -108.3,61.44 -168.71,61.44 -75.74,0 -129.44,-28.37 -160.95,-85.12 -31.7,-56.75 -33.98,-138 -7.04,-243.74 17.48,-68.59 42.7,-128.4 75.58,-179.84 32.85,-51.24 72.78,-89.82 119.92,-115.34 47,-25.72 94.28,-38.58 142.04,-38.58 60.05,0 104.99,17.35 134.23,52.26 29.41,34.91 41.36,84.51 35.72,148.61l-94.94 15.93c2.15,-42.67 -5.01,-74.71 -21.78,-96.35 -16.63,-21.44 -40.61,-32.26 -71.97,-32.26 -47.4,0 -90.82,19.39 -130.46,58.19 -39.52,38.99 -69.92,100.23 -91.34,184.33 -21.74,85.33 -23.26,147.18 -4.57,185.76 18.86,38.59 51.16,57.98 96.95,57.98 37.07,0 71.17,-12.87 102.36,-38.79 31.32,-25.72 57.15,-65.53 77.42,-119.22z"/>
  <polygon class="fil0" points="2255.6,973.73 2479.06,96.76 3031.8,96.76 3005.58,199.64 2554.42,199.64 2485.75,469.1 2908.06,469.1 2881.84,571.99 2459.53,571.99 2383.38,870.84 2852.72,870.84 2826.51,973.73 "/>
  <path class="fil0 str0" d="M5180.93 1722.02c40.63,0 79.65,-18.82 107.89,-54.38l-19.39 -18.83c-23.49,27.72 -52.25,40.26 -80.09,40.26 -52.5,0 -80.04,-42.35 -63.52,-107.19 16.39,-64.32 65.65,-107.2 118.15,-107.2 27.84,0 50.07,13.07 59.44,40.79l28.98 -18.82c-9.97,-36.08 -39.54,-54.38 -80.17,-54.38 -71.67,0 -138.35,57.52 -159.28,139.62 -20.92,82.1 16.33,140.14 87.99,140.14z"/>
  <polygon class="fil0 str0" points="4959.31,1719.41 4991.72,1719.41 5061.8,1444.36 5029.4,1444.36 "/>
  <path class="fil0 str0" d="M5061.15 1384.22c13.7,0 26.8,-12.03 30.67,-27.19 3.6,-14.12 -3.97,-25.62 -17.21,-25.62 -13.24,0 -26.8,12.03 -30.39,26.15 -3.74,14.64 3.7,26.67 16.93,26.67z"/>
  <path class="fil0 str0" d="M4900.08 1676.01c-11.52,9.41 -25.96,14.12 -39.2,14.12 -26.93,0 -37,-17.78 -28.74,-50.19l41.84 -164.2 73.03 0 7.99 -31.37 -73.03 0 15.33 -60.14 -32.41 0 -15.33 60.14 -42.91 0 -8 31.37 42.91 0 -42.37 166.29c-12.93,50.72 4.72,80 49.91,80 18.72,0 39.49,-6.27 55.6,-19.34l-4.62 -26.67z"/>
  <path class="fil0 str0" d="M4614.48 1722.02c62.54,0 106.91,-30.85 119.04,-78.43 26.89,-105.54 -143.02,-49.59 -124.08,-123.93 6.67,-26.15 30.77,-45.49 74.13,-45.49 24.65,0 48.02,6.8 64.75,23.53l21.75 -29.8c-16.09,-15.69 -47.33,-25.62 -78.38,-25.62 -61.15,0 -103.46,33.46 -114.93,78.44 -27.71,108.76 142.31,52.38 124.08,123.93 -6.93,27.19 -30.18,44.97 -75.82,44.97 -33.78,0 -62.71,-13.6 -77.49,-30.85l-22.07 29.28c14.7,19.35 49.31,33.99 89.02,33.99z"/>
  <path class="fil0 str0" d="M4436.09 1442.27c-37.89,0 -76.95,13.59 -107.14,37.13l7.54 27.71c24.7,-19.87 57.1,-32.43 88.14,-32.43 44.73,0 61.48,25.63 49.49,72.69l-4.26 16.74 -76.22 0c-68.93,0 -101.72,35.56 -112.52,77.91 -12.12,47.58 12.94,80 67.26,80 39.7,0 72.39,-17.25 94.2,-45.49l-10.92 42.88 31.03 0 43.44 -170.47c18.12,-71.12 -7.96,-106.67 -70.04,-106.67zm-75.23 250.48c-38.35,0 -55.64,-19.87 -47.52,-51.77 7.2,-28.24 27.59,-49.15 74.14,-49.15l75.31 0 -11.46 44.97c-21.97,36.08 -53.96,55.95 -90.48,55.95z"/>
  <path class="fil0 str0" d="M4222.26 1676.01c-11.52,9.41 -25.96,14.12 -39.2,14.12 -26.93,0 -37.01,-17.78 -28.74,-50.19l41.84 -164.2 73.03 0 7.99 -31.37 -73.03 0 15.32 -60.14 -32.41 0 -15.32 60.14 -42.91 0 -8 31.37 42.91 0 -42.37 166.29c-12.93,50.72 4.72,80 49.9,80 18.72,0 39.49,-6.27 55.6,-19.34l-4.61 -26.67z"/>
  <path class="fil0 str0" d="M3980.11 1442.27c-41.54,0 -78.87,19.34 -104.76,52.81l12.93 -50.72 -31.04 0 -70.09 275.05 32.41 0 36.78 -144.32c15.99,-62.75 57.73,-99.36 109.31,-99.36 45.65,0 64.52,29.8 49.74,87.85l-39.71 155.83 32.41 0 40.64 -159.49c20.12,-78.96 -10.19,-117.66 -68.61,-117.66z"/>
  <path class="fil0 str0" d="M3672.47 1442.27c-37.89,0 -76.96,13.59 -107.15,37.13l7.54 27.71c24.7,-19.87 57.11,-32.43 88.14,-32.43 44.73,0 61.48,25.63 49.49,72.69l-4.26 16.74 -76.22 0c-68.93,0 -101.72,35.56 -112.52,77.91 -12.12,47.58 12.94,80 67.26,80 39.7,0 72.4,-17.25 94.2,-45.49l-10.92 42.88 31.03 0 43.44 -170.47c18.13,-71.12 -7.96,-106.67 -70.04,-106.67zm-75.24 250.48c-38.34,0 -55.64,-19.87 -47.52,-51.77 7.2,-28.24 27.59,-49.15 74.15,-49.15l75.31 0 -11.46 44.97c-21.97,36.08 -53.96,55.95 -90.48,55.95z"/>
  <path class="fil0 str0" d="M3538.64 1360.17c13.7,0 25.28,4.7 32.15,13.59l18.02 -27.71c-8.94,-11.5 -25.73,-17.26 -43.53,-17.26 -47.02,0 -80.83,32.43 -93.36,81.58l-8.67 33.99 -42.91 0 -8 31.37 42.91 0 -62.09 243.68 32.41 0 62.09 -243.68 73.03 0 7.99 -31.37 -73.94 0 8.26 -32.43c8.66,-33.99 27.79,-51.77 55.63,-51.77z"/>
  <path class="fil0 str0" d="M3216.95 1581.89c21.06,-82.62 -13.27,-139.62 -80.82,-139.62 -67.56,0 -132.09,58.05 -152.88,139.62 -20.78,81.57 15.41,140.14 90.27,140.14 37.89,0 75.2,-15.69 104.12,-44.97l-12.14 -24.05c-24.38,24.05 -53.46,36.07 -82.68,36.07 -52.5,0 -81.1,-38.17 -70.1,-95.69l200.84 0c1.07,-4.18 2.59,-8.36 3.39,-11.5zm-88.95 -107.72c47.01,0 71.66,37.65 62.04,91.51l-170.25 0c17.83,-53.86 61.66,-91.51 108.21,-91.51z"/>
  <path class="fil0 str0" d="M2882.69 1498.22l13.73 -53.86 -31.04 0 -70.09 275.05 32.41 0 35.71 -140.15c16.52,-64.84 56.43,-101.44 106.64,-101.44 2.29,0 4.89,0.53 7.63,0.53l9.2 -36.08c-44.28,0 -79.79,19.34 -104.19,55.95z"/>
  <path class="fil0 str0" d="M2606.57 1722.02c70.3,0 136.8,-58.56 157.59,-140.14 20.79,-81.57 -16,-139.62 -86.3,-139.62 -70.3,0 -137.11,58.05 -157.9,139.62 -20.79,81.57 16.32,140.14 86.61,140.14zm8.4 -32.94c-51.12,0 -78.54,-42.88 -62.15,-107.19 16.39,-64.32 65.67,-107.2 116.78,-107.2 51.13,0 78.08,42.88 61.69,107.2 -16.39,64.31 -65.2,107.19 -116.32,107.19z"/>
  <polygon class="fil0 str0" points="2477.3,1353.37 2270.76,1624.77 2201.15,1353.37 2173.31,1353.37 2080.04,1719.41 2112.45,1719.41 2186.67,1428.15 2249.83,1672.87 2265.81,1672.87 2454.09,1426.57 2379.47,1719.41 2411.87,1719.41 2505.15,1353.37 "/>
  <polygon class="fil0" points="893.44,0.02 1719.36,0.02 1658.93,241.89 833.01,241.89 "/>
  <polygon class="fil0" points="707.93,742.43 1533.71,742.43 1473.28,984.3 647.5,984.3 "/>
  <polygon class="fil1" points="8182.46,973.73 8405.92,96.76 8500,96.76 8276.54,973.73 "/>
  <path class="fil1" d="M7972.7 894.12c-43.61,34.09 -83.37,57.98 -119.21,72.06 -35.85,14.08 -72.17,21.02 -109.24,21.02 -60.94,0 -103.49,-16.94 -127.59,-51.03 -24.15,-33.89 -29.47,-77.37 -16,-130.24 7.91,-31.03 21.38,-59.4 40.23,-85.12 19.02,-25.72 40.44,-46.13 64.35,-61.65 24.09,-15.51 49.56,-27.35 76.71,-35.31 19.94,-5.51 49.26,-10.82 87.86,-16.13 78.51,-10.2 137.81,-22.66 177.27,-36.95 4.11,-14.7 6.67,-24.08 7.66,-27.96 11.13,-43.69 10.07,-74.51 -3.17,-92.48 -17.86,-24.3 -50.61,-36.33 -98,-36.33 -44.37,0 -79.44,8.98 -105,26.74 -25.73,17.76 -49.24,49.19 -70.94,94.51l-88.2 -14.7c19.86,-45.12 42.89,-81.65 69.22,-109.42 26.31,-27.76 59.52,-48.99 99.72,-64.1 39.96,-14.9 84.13,-22.45 131.87,-22.45 47.4,0 84.45,6.33 110.93,19.19 26.31,12.86 44.16,28.79 53.12,48.17 8.96,19.39 12.51,43.9 10.67,73.49 -1.65,18.37 -8.47,51.44 -20.59,99.01l-36.42 142.89c-25.43,99.83 -39.54,162.9 -42.44,189.65 -3.07,26.74 -1.73,52.26 3.43,76.76l-98.36 0c-3.67,-22.67 -2.96,-49.2 2.11,-79.61zm53.38 -238.84c-38.27,15.93 -93.02,29.39 -164.25,40.42 -40.45,6.33 -69.72,13.47 -87.78,21.43 -18.07,7.97 -33.33,19.61 -45.91,34.7 -12.63,15.31 -21.4,32.26 -26.19,51.04 -7.23,28.37 -3.87,52.26 10.35,71.24 14.23,18.98 39.58,28.58 76.11,28.58 36.17,0 70.71,-8.98 103.67,-27.15 32.73,-17.96 59.88,-42.66 81.02,-73.89 16.35,-24.3 30.43,-60.02 42.45,-107.17l10.52 -39.19z"/>
  <path class="fil1" d="M7477.16 741.02l88.2 14.7c-28.62,72.47 -68.69,129.01 -120.67,170.04 -51.97,41.04 -108.31,61.44 -168.71,61.44 -75.74,0 -129.44,-28.37 -160.96,-85.12 -31.69,-56.75 -33.97,-138 -7.03,-243.74 17.48,-68.59 42.7,-128.4 75.59,-179.84 32.83,-51.24 72.78,-89.82 119.91,-115.34 47.01,-25.72 94.3,-38.58 142.05,-38.58 60.05,0 104.98,17.35 134.23,52.26 29.41,34.91 41.36,84.51 35.72,148.61l-94.93 15.93c2.14,-42.67 -5.02,-74.71 -21.78,-96.35 -16.63,-21.44 -40.61,-32.26 -71.97,-32.26 -47.39,0 -90.82,19.39 -130.46,58.19 -39.52,38.99 -69.91,100.23 -91.34,184.33 -21.74,85.33 -23.26,147.18 -4.57,185.76 18.86,38.59 51.16,57.98 96.96,57.98 37.06,0 71.17,-12.87 102.36,-38.79 31.32,-25.72 57.15,-65.53 77.42,-119.22z"/>
  <polygon class="fil1" points="6817.91,973.73 6979.88,338.05 7073.97,338.05 6911.99,973.73 "/>
  <polygon class="fil1" points="7010.16,219.24 7041.37,96.76 7135.45,96.76 7104.24,219.24 "/>
  <path class="fil1" d="M6192.59 1026.4l87.13 14.7c-4.48,32.25 0.23,55.73 13.89,70.63 18.3,19.81 47.65,29.81 88.09,29.81 43.48,0 79.7,-10 108.45,-29.81 28.74,-19.8 51.91,-47.76 69.39,-83.49 10.38,-21.84 24.4,-67.77 41.89,-137.79 -55.3,55.53 -113.53,83.29 -174.82,83.29 -76.26,0 -127.41,-31.44 -153.03,-94.52 -25.86,-62.87 -27.45,-138.41 -5.04,-226.39 15.45,-60.63 39.32,-116.56 71.44,-167.8 32.13,-51.24 69.96,-90.64 113.43,-118.6 43.48,-27.96 89.78,-41.85 138.96,-41.85 65.4,0 111.58,30.62 138.38,91.86l19.97 -78.39 86.6 0 -139.87 548.92c-25.23,99.01 -51.8,169.03 -79.96,210.26 -27.97,41.24 -64.26,73.89 -108.31,97.78 -44.21,23.88 -94.15,35.93 -149.74,35.93 -66.11,0 -115.07,-16.94 -147.01,-51.03 -32.17,-33.89 -38.72,-85.13 -19.86,-153.51zm174.14 -381.33c-21.18,83.08 -22.19,143.71 -3.04,181.89 19.31,38.17 50.6,57.37 94.07,57.37 43.3,0 84.31,-18.99 123.38,-56.96 38.91,-37.97 68.7,-97.57 89.41,-178.82 19.76,-77.57 19.55,-136.17 -0.53,-175.56 -20.07,-39.4 -51.43,-59 -93.84,-59 -41.87,0 -82.27,19.39 -121.57,58.18 -39.1,38.78 -68.38,96.35 -87.89,172.9z"/>
  <path class="fil1" d="M5674.39 655.89c29.91,-117.38 80.58,-204.35 152.19,-260.89 59.54,-46.96 123.79,-70.43 192.39,-70.43 76.08,0 131.17,28.58 165.07,85.74 33.78,56.96 37.88,135.95 12.24,236.59 -20.81,81.65 -47.83,145.75 -81.13,192.5 -33.3,46.74 -73.74,83.08 -121.33,109.01 -47.41,25.92 -95.41,38.78 -143.7,38.78 -77.69,0 -133.19,-28.37 -166.6,-85.32 -33.42,-56.96 -36.39,-139.02 -9.13,-245.98zm96.17 0.2c-20.7,81.25 -20.7,142.08 0.06,182.3 20.88,40.42 54.76,60.63 101.98,60.63 46.68,0 90.68,-20.21 132.21,-60.84 41.36,-40.62 72.63,-102.48 93.8,-185.56 19.98,-78.39 19.43,-137.8 -1.5,-178.01 -20.89,-40.42 -54.59,-60.63 -100.92,-60.63 -47.21,0 -91.33,20.01 -132.76,60.22 -41.26,40.21 -72.21,100.83 -92.86,181.88z"/>
  <polygon class="fil1" points="5041.55,973.73 5265.02,96.76 5366.59,96.76 5169.35,870.84 5545.67,870.84 5519.46,973.73 "/>
  <polygon class="fil1" points="4410.7,710.4 4438.17,602.61 4728.96,602.61 4701.5,710.4 "/>
  <path class="fil1 str1" d="M7989.91 1722.02c40.62,0 79.65,-18.82 107.89,-54.38l-19.39 -18.83c-23.49,27.72 -52.25,40.26 -80.09,40.26 -52.5,0 -80.04,-42.35 -63.52,-107.19 16.39,-64.32 65.66,-107.2 118.15,-107.2 27.84,0 50.08,13.07 59.44,40.79l28.99 -18.82c-9.98,-36.08 -39.56,-54.38 -80.18,-54.38 -71.66,0 -138.35,57.52 -159.27,139.62 -20.91,82.1 16.33,140.14 87.99,140.14z"/>
  <polygon class="fil1 str1" points="7768.28,1719.41 7800.7,1719.41 7870.78,1444.36 7838.37,1444.36 "/>
  <path class="fil1 str1" d="M7870.13 1384.22c13.7,0 26.8,-12.03 30.67,-27.19 3.59,-14.12 -3.97,-25.62 -17.2,-25.62 -13.24,0 -26.8,12.03 -30.4,26.15 -3.73,14.64 3.7,26.67 16.93,26.67z"/>
  <path class="fil1 str1" d="M7709.06 1676.01c-11.53,9.41 -25.96,14.12 -39.2,14.12 -26.93,0 -37.01,-17.78 -28.74,-50.19l41.84 -164.2 73.03 0 7.99 -31.37 -73.03 0 15.32 -60.14 -32.41 0 -15.33 60.14 -42.91 0 -8 31.37 42.91 0 -42.37 166.29c-12.92,50.72 4.72,80 49.91,80 18.72,0 39.49,-6.27 55.59,-19.34l-4.61 -26.67z"/>
  <path class="fil1 str1" d="M7423.46 1722.02c62.53,0 106.92,-30.85 119.04,-78.43 26.9,-105.54 -143.02,-49.59 -124.07,-123.93 6.66,-26.15 30.76,-45.49 74.12,-45.49 24.65,0 48.02,6.8 64.76,23.53l21.74 -29.8c-16.08,-15.69 -47.33,-25.62 -78.37,-25.62 -61.16,0 -103.47,33.46 -114.93,78.44 -27.71,108.76 142.3,52.38 124.07,123.93 -6.93,27.19 -30.17,44.97 -75.81,44.97 -33.78,0 -62.72,-13.6 -77.5,-30.85l-22.07 29.28c14.7,19.35 49.31,33.99 89.02,33.99z"/>
  <path class="fil1 str1" d="M7245.07 1442.27c-37.89,0 -76.96,13.59 -107.14,37.13l7.55 27.71c24.69,-19.87 57.1,-32.43 88.14,-32.43 44.73,0 61.48,25.63 49.49,72.69l-4.26 16.74 -76.23 0c-68.93,0 -101.72,35.56 -112.51,77.91 -12.13,47.58 12.94,80 67.25,80 39.71,0 72.41,-17.25 94.22,-45.49l-10.93 42.88 31.04 0 43.43 -170.47c18.13,-71.12 -7.96,-106.67 -70.04,-106.67zm-75.24 250.48c-38.34,0 -55.65,-19.87 -47.51,-51.77 7.19,-28.24 27.58,-49.15 74.14,-49.15l75.31 0 -11.46 44.97c-21.98,36.08 -53.97,55.95 -90.48,55.95z"/>
  <polygon class="fil1 str1" points="6967.68,1719.41 7000.08,1719.41 7098.96,1331.41 7066.55,1331.41 "/>
  <path class="fil1 str1" d="M6852.52 1442.27c-39.7,0 -78.1,19.87 -107.05,56.47l13.86 -54.38 -31.04 0 -95.94 376.49 32.41 0 39.04 -153.21c11.02,35.56 39.09,54.38 77.43,54.38 68.47,0 133.98,-56.47 155.3,-140.14 21.19,-83.15 -15.54,-139.62 -84.01,-139.62zm-65.17 246.81c-51.13,0 -78.54,-42.88 -62.15,-107.19 16.26,-63.8 65.66,-107.2 116.78,-107.2 50.67,0 78.41,43.41 62.15,107.2 -16.39,64.31 -66.11,107.19 -116.78,107.19z"/>
  <path class="fil1 str1" d="M6422.56 1442.27c-41.54,0 -78.87,19.34 -104.76,52.81l12.93 -50.72 -31.04 0 -70.09 275.05 32.41 0 36.78 -144.32c15.99,-62.75 57.73,-99.36 109.31,-99.36 45.63,0 64.52,29.8 49.72,87.85l-39.7 155.83 32.41 0 40.64 -159.49c20.12,-78.96 -10.19,-117.66 -68.61,-117.66z"/>
  <path class="fil1 str1" d="M6198.46 1581.89c21.05,-82.62 -13.27,-139.62 -80.82,-139.62 -67.55,0 -132.09,58.05 -152.88,139.62 -20.79,81.57 15.41,140.14 90.27,140.14 37.89,0 75.2,-15.69 104.12,-44.97l-12.13 -24.05c-24.39,24.05 -53.47,36.07 -82.69,36.07 -52.5,0 -81.1,-38.17 -70.1,-95.69l200.83 0c1.07,-4.18 2.59,-8.36 3.39,-11.5zm-88.95 -107.72c47.02,0 71.65,37.65 62.04,91.51l-170.25 0c17.83,-53.86 61.66,-91.51 108.22,-91.51z"/>
  <path class="fil1 str1" d="M5836.93 1442.27c-40.63,0 -76.79,18.3 -102.72,50.2l41.04 -161.06 -32.41 0 -98.87 388 32.41 0 36.78 -144.32c15.99,-62.75 57.73,-99.36 109.31,-99.36 45.64,0 64.52,29.8 49.73,87.85l-39.71 155.83 32.41 0 40.64 -159.49c20.11,-78.96 -10.19,-117.66 -68.61,-117.66z"/>
  <path class="fil1 str1" d="M5584.75 1676.01c-11.53,9.41 -25.97,14.12 -39.2,14.12 -26.93,0 -37,-17.78 -28.74,-50.19l41.84 -164.2 73.03 0 8 -31.37 -73.03 0 15.32 -60.14 -32.41 0 -15.32 60.14 -42.91 0 -7.99 31.37 42.91 0 -42.37 166.29c-12.92,50.72 4.72,80 49.91,80 18.71,0 39.48,-6.27 55.59,-19.34l-4.61 -26.67z"/>
  <polygon class="fil1" points="-0,1726.71 185.5,984.3 184.78,984.3 185.66,983.66 431.44,0.01 704.97,0.01 519.46,742.43 520.41,742.43 459.98,984.3 459.03,984.3 333.96,1484.84 1347.5,1484.84 1287.07,1726.71 "/>
  <polygon class="fil1" points="4368.56,594.53 4789.07,594.53 4758.33,717.69 4337.83,717.69 "/>
 </g>
</svg>
